<?xml version="1.0" encoding="UTF-8" standalone="no"?>
<!-- Created with Inkscape (http://www.inkscape.org/) -->
<svg
   xmlns:dc="http://purl.org/dc/elements/1.1/"
   xmlns:cc="http://creativecommons.org/ns#"
   xmlns:rdf="http://www.w3.org/1999/02/22-rdf-syntax-ns#"
   xmlns:svg="http://www.w3.org/2000/svg"
   xmlns="http://www.w3.org/2000/svg"
   xmlns:sodipodi="http://sodipodi.sourceforge.net/DTD/sodipodi-0.dtd"
   xmlns:inkscape="http://www.inkscape.org/namespaces/inkscape"
   width="744.09448819"
   height="1052.3622047"
   id="svg2"
   sodipodi:version="0.32"
   inkscape:version="0.46"
   sodipodi:docname="VirselisknygaManKerned.svg"
   inkscape:output_extension="org.inkscape.output.svg.inkscape"
   enable-background="new">
  <defs
     id="defs4">
    <inkscape:perspective
       sodipodi:type="inkscape:persp3d"
       inkscape:vp_x="0 : 526.18109 : 1"
       inkscape:vp_y="0 : 1000 : 0"
       inkscape:vp_z="744.09448 : 526.18109 : 1"
       inkscape:persp3d-origin="372.04724 : 350.78739 : 1"
       id="perspective10" />
    <inkscape:perspective
       id="perspective3311"
       inkscape:persp3d-origin="151.50049 : 24.115 : 1"
       inkscape:vp_z="303.00098 : 36.172501 : 1"
       inkscape:vp_y="0 : 1000 : 0"
       inkscape:vp_x="0 : 36.172501 : 1"
       sodipodi:type="inkscape:persp3d" />
  </defs>
  <sodipodi:namedview
     id="base"
     pagecolor="#ffffff"
     bordercolor="#666666"
     borderopacity="1.0"
     gridtolerance="10000"
     guidetolerance="10"
     objecttolerance="10"
     inkscape:pageopacity="0.0"
     inkscape:pageshadow="2"
     inkscape:zoom="19.02741"
     inkscape:cx="7.0500951"
     inkscape:cy="11.454294"
     inkscape:document-units="px"
     inkscape:current-layer="layer1"
     showgrid="false"
     showguides="true"
     inkscape:guide-bbox="true"
     inkscape:window-width="1280"
     inkscape:window-height="964"
     inkscape:window-x="0"
     inkscape:window-y="26"
     inkscape:snap-global="true">
    <inkscape:grid
       type="xygrid"
       id="grid3319" />
  </sodipodi:namedview>
  <metadata
     id="metadata7">
    <rdf:RDF>
      <cc:Work
         rdf:about="">
        <dc:format>image/svg+xml</dc:format>
        <dc:type
           rdf:resource="http://purl.org/dc/dcmitype/StillImage" />
      </cc:Work>
    </rdf:RDF>
  </metadata>
  <g
     inkscape:label="Layer 1"
     inkscape:groupmode="layer"
     id="layer1"
     style="display:inline">
    <path
       style="opacity:1;fill:#ff7f00;fill-opacity:1;stroke:#000000;stroke-width:0.86264694;stroke-miterlimit:4;stroke-dasharray:none;stroke-dashoffset:0;stroke-opacity:1"
       d="M 0.4313235,524.86218 L 0.4313235,-2.2064762 L 372.5,-2.2064762 L 744.56868,-2.2064762 L 744.56868,524.86218 L 744.56868,1051.9309 L 372.5,1051.9309 L 0.4313235,1051.9309 L 0.4313235,524.86218 z"
       id="path2396" />
    <path
       style="fill:none;fill-opacity:1;fill-rule:evenodd;stroke:#000000;stroke-width:4.51359987;stroke-linecap:butt;stroke-linejoin:miter;stroke-miterlimit:4;stroke-dasharray:none;stroke-opacity:1;display:inline"
       d="M 119.97831,327.36218 L 620,327.36218"
       id="path2401" />
    <text
       xml:space="preserve"
       style="font-size:30px;font-style:normal;font-variant:normal;font-weight:normal;font-stretch:normal;fill:#000000;fill-opacity:1;stroke:none;stroke-width:1px;stroke-linecap:butt;stroke-linejoin:miter;stroke-opacity:1;font-family:PsRockwell;-inkscape-font-specification:PsRockwell"
       x="335.09555"
       y="146.30086"
       id="text2409"><tspan
         sodipodi:role="line"
         id="tspan2411"
         x="335.09555"
         y="146.30086" /></text>
    <g
       id="g2421"
       transform="translate(-269.92639,10.931598)">
      <text
         id="text2401"
         y="85.756615"
         x="330.89108"
         style="font-size:30px;font-style:normal;font-variant:normal;font-weight:normal;font-stretch:normal;fill:#000000;fill-opacity:1;stroke:none;stroke-width:1px;stroke-linecap:butt;stroke-linejoin:miter;stroke-opacity:1;font-family:PsRockwell;-inkscape-font-specification:PsRockwell"
         xml:space="preserve"><tspan
           dx="0 0 0 0 0 0 0 0 0 0 0.4204461 -0.4204461"
           y="85.756615"
           x="330.89108"
           id="tspan2403"
           sodipodi:role="line">Paulius Kantautas</tspan></text>
      <text
         id="text2405"
         y="118.97186"
         x="330.89108"
         style="font-size:30px;font-style:normal;font-variant:normal;font-weight:normal;font-stretch:normal;fill:#000000;fill-opacity:1;stroke:none;stroke-width:1px;stroke-linecap:butt;stroke-linejoin:miter;stroke-opacity:1;font-family:PsRockwell;-inkscape-font-specification:PsRockwell"
         xml:space="preserve"><tspan
           y="118.97186"
           x="330.89108"
           id="tspan2407"
           sodipodi:role="line">Lukas Melninkas</tspan></text>
      <text
         id="text2413"
         y="153.02798"
         x="331.31152"
         style="font-size:30px;font-style:normal;font-variant:normal;font-weight:normal;font-stretch:normal;fill:#000000;fill-opacity:1;stroke:none;stroke-width:1px;stroke-linecap:butt;stroke-linejoin:miter;stroke-opacity:1;font-family:PsRockwell;-inkscape-font-specification:PsRockwell"
         xml:space="preserve"><tspan
           dx="0 0 -0.4204461 1.2613382 0 -0.8408922"
           y="153.02798"
           x="331.31152"
           id="tspan2415"
           sodipodi:role="line">Pijus Simonaitis</tspan></text>
      <text
         id="text2417"
         y="185.40234"
         x="331.31152"
         style="font-size:30px;font-style:normal;font-variant:normal;font-weight:normal;font-stretch:normal;fill:#000000;fill-opacity:1;stroke:none;stroke-width:1px;stroke-linecap:butt;stroke-linejoin:miter;stroke-opacity:1;font-family:PsRockwell;-inkscape-font-specification:PsRockwell"
         xml:space="preserve"><tspan
           y="185.40234"
           x="331.31152"
           id="tspan2419"
           sodipodi:role="line">Paulius Šarka</tspan></text>
    </g>
  </g>
  <g
     inkscape:groupmode="layer"
     id="layer4"
     inkscape:label="cclogo"
     style="display:inline">
    <path
       style="fill:#000000"
       id="path2451"
       d="M 366.7055,1027.1371 C 366.32206,1027.0841 365.38089,1026.8845 364.61402,1026.6936 C 355.70844,1024.477 348.80042,1017.6815 346.45323,1008.8285 C 345.91499,1006.7984 345.83642,1006.0494 345.83159,1002.9027 C 345.82674,999.74916 345.9009,999.02196 346.42727,997.06181 C 347.61858,992.62564 349.64975,988.99379 352.76032,985.73798 C 357.86251,980.39758 364.98341,977.80049 372.55873,978.51722 C 379.9411,979.21571 386.55643,983.16315 390.64259,989.30809 C 395.45336,996.54274 395.98328,1006.3892 391.9791,1014.1421 C 388.54715,1020.7869 381.86039,1025.6426 374.33428,1026.955 C 372.50666,1027.2737 368.40193,1027.3717 366.7055,1027.1371 z M 374.14229,1022.4499 C 381.69372,1020.8913 387.67623,1015.3313 389.64276,1008.0442 C 390.33818,1005.4672 390.35,1000.4873 389.66683,997.90456 C 388.03339,991.72932 383.59299,986.59262 377.92712,984.32389 C 375.10502,983.19387 373.30963,982.8621 370.07508,982.87291 C 366.71194,982.88415 364.48974,983.3628 361.72983,984.67042 C 354.44091,988.12385 349.69354,995.99074 350.16646,1003.8322 C 350.89863,1015.9725 362.36947,1024.8798 374.14229,1022.4499 z M 360.63683,1009.9632 C 358.40948,1009.1733 356.70144,1006.8551 356.40033,1004.2133 C 355.95397,1000.2973 357.42703,997.25626 360.43108,995.89198 C 362.05897,995.15269 365.01594,995.17015 366.77234,995.92943 C 367.83877,996.39043 369.8427,998.20036 369.8427,998.70256 C 369.8427,998.78496 369.15065,999.19366 368.3048,999.61076 L 366.7669,1000.3691 L 365.94623,999.54846 C 365.48844,999.09066 364.78796,998.66446 364.36207,998.58456 C 363.30589,998.38636 362.04151,998.85626 361.46962,999.65936 C 360.5233,1000.9884 360.45814,1004.4628 361.3539,1005.8299 C 361.81813,1006.5384 362.59917,1007.0359 363.3359,1007.0925 C 364.88415,1007.2113 365.27463,1007.0776 366.19088,1006.1144 L 367.11481,1005.1431 L 368.30447,1005.7982 C 368.95878,1006.1585 369.5889,1006.5387 369.70472,1006.6431 C 370.10618,1007.005 368.26485,1008.884 366.78339,1009.6243 C 365.52445,1010.2534 365.12795,1010.3368 363.47308,1010.3207 C 362.43904,1010.3106 361.16273,1010.1497 360.63683,1009.9632 z M 374.81234,1009.9632 C 372.61578,1009.1842 370.9364,1006.9391 370.57532,1004.2988 C 370.0523,1000.4744 371.5935,997.26036 374.6066,995.89198 C 376.35514,995.0979 379.31875,995.15906 381.09027,996.02578 C 382.18673,996.56223 384.01821,998.24546 384.01821,998.71666 C 384.01821,998.79676 383.3,999.20976 382.42219,999.63446 L 380.82616,1000.4066 L 380,999.50506 C 379.25712,998.69446 379.05971,998.60356 378.04193,998.60356 C 376.64114,998.60356 375.73972,999.15396 375.25337,1000.3064 C 374.81824,1001.3375 374.76358,1003.866 375.15151,1005.0181 C 375.94012,1007.3601 378.81877,1007.9152 380.45304,1006.0404 L 381.18701,1005.1984 L 382.60261,1005.913 C 383.38119,1006.306 384.01821,1006.6937 384.01821,1006.7746 C 384.01821,1007.3058 382.1892,1009.0095 380.95891,1009.6243 C 379.69996,1010.2534 379.30346,1010.3368 377.64859,1010.3207 C 376.61456,1010.3106 375.33825,1010.1497 374.81234,1009.9632 z"
       sodipodi:nodetypes="csssssssssccssssssccsssscccsssscccsssccsssscccssscccsssc" />
  </g>
  <g
     inkscape:groupmode="layer"
     id="layer2"
     inkscape:label="Tekstas"
     style="display:inline">
    <text
       xml:space="preserve"
       style="font-size:70px;font-style:normal;font-variant:normal;font-weight:normal;font-stretch:normal;fill:#000000;fill-opacity:1;stroke:none;stroke-width:1px;stroke-linecap:butt;stroke-linejoin:miter;stroke-opacity:1;font-family:PsRockwell;-inkscape-font-specification:PsRockwell"
       x="60.528923"
       y="408.75882"
       id="text2386"
       transform="scale(0.9912617,1.0088154)"><tspan
         sodipodi:role="line"
         x="60.528923"
         y="408.75882"
         id="tspan2390"
         dx="0 0 0 0 0 -9.4176e-009 9.4176e-009 0 0 0 0 0 0 1.6817843 -3.3635685 0 -2.5226765">Matematikos knyga</tspan></text>
  </g>
  <g
     inkscape:groupmode="layer"
     id="layer3"
     inkscape:label="Brūkšniai"
     style="display:inline">
    <path
       id="path3315"
       d="M 30.004333,1002.3622 L 330.00433,1002.3622"
       style="opacity:1;fill:none;fill-rule:evenodd;stroke:#000000;stroke-width:0.85600001;stroke-linecap:butt;stroke-linejoin:miter;stroke-miterlimit:4;stroke-dasharray:none;stroke-opacity:1" />
    <path
       style="opacity:1;fill:none;fill-rule:evenodd;stroke:#000000;stroke-width:0.8557989px;stroke-linecap:butt;stroke-linejoin:miter;stroke-opacity:1"
       d="M 410.00433,1002.3622 L 710.00433,1002.3622"
       id="path3317" />
    <path
       style="fill:none;fill-opacity:1;fill-rule:evenodd;stroke:#000000;stroke-width:4.03088284;stroke-linecap:butt;stroke-linejoin:miter;stroke-miterlimit:4;stroke-dasharray:none;stroke-opacity:1"
       d="M 120.01888,461.60623 L 620.04057,461.60623"
       id="path3331" />
  </g>
</svg>
